<?xml version="1.0" encoding="utf-8"?>
<svg id="master-artboard" viewBox="0 0 1107.7703857421875 70.02387237548828" version="1.1" xmlns="http://www.w3.org/2000/svg" x="0px" y="0px" style="enable-background:new 0 0 1096 780;" width="1107.7703857421875px" height="70.02387237548828px" fill="#67FF0B">
<rect id="ee-background" x="0" y="0" width="1107.7703857421875" height="70.02387237548828" style="fill: white; fill-opacity: 0; pointer-events: none;" />












<g transform="matrix(1, 0, 0, 1, 3.923444986343384, -240.31100463867188)">
	<path d="M575.3,275.6c0,0-9,0.2-18.4,7.7c-9.7,7.7-8.2,23.2-8.2,23.2h-0.2c0,0,1.4-15.5-8.2-23.2c-9.4-7.5-18.4-7.7-18.4-7.7v0&#10;&#9;&#9;c0,0,9-0.2,18.4-7.7c9.7-7.7,8.2-23.2,8.2-23.2h0.2c0,0-1.4,15.5,8.2,23.2C566.3,275.3,575.3,275.5,575.3,275.6L575.3,275.6z"/>
	<path class="st0" d="M562.6,275.5c0,0-4.7,0.1-9.6,4c-5,4-4.3,12.1-4.3,12.1h-0.1c0,0,0.8-8-4.3-12.1c-4.9-3.9-9.6-4-9.6-4v0&#10;&#9;&#9;c0,0,4.7-0.1,9.6-4c5-4,4.3-12.1,4.3-12.1h0.1c0,0-0.8,8,4.3,12.1C557.9,275.3,562.6,275.4,562.6,275.5L562.6,275.5z" style="fill: #252525"/>
</g>
<g transform="matrix(1, 0, 0, 1, 3.923444986343384, -240.31100463867188)">
	<path d="M597,285.8c9-1.4,11.7-4.6,23.4-5.7c7.9-0.7,10.5-0.3,18.5-0.1c6.2,0.2,12.9,1.2,19,2c17.6,2.5,23.7,2,28.2-1.6&#10;&#9;&#9;c4.5-3.7,4.7-4.7,4.7-4.7H579.4v0C579.4,275.7,582.1,288,597,285.8z"/>
	<path d="M597,265.6c9,1.4,11.7,4.6,23.4,5.7c7.9,0.7,10.5,0.3,18.5,0.1c6.2-0.2,12.9-1.2,19-2c17.6-2.5,23.7-2,28.2,1.6&#10;&#9;&#9;c4.5,3.7,4.7,4.7,4.7,4.7H579.4v0C579.4,275.7,582.1,263.3,597,265.6z"/>
</g>
<path d="M 710.099976 275.600006 A 6.5 6.5 0 0 1 703.599976 282.100006 A 6.5 6.5 0 0 1 697.099976 275.600006 A 6.5 6.5 0 0 1 703.599976 269.100006 A 6.5 6.5 0 0 1 710.099976 275.600006 Z" transform="matrix(1, 0, 0, 1, 3.923444986343384, -240.31100463867188)"/>
<path d="M 764.5 276.399994 A 23.5 2.8 0 0 1 741 279.199994 A 23.5 2.8 0 0 1 717.5 276.399994 A 23.5 2.8 0 0 1 741 273.599994 A 23.5 2.8 0 0 1 764.5 276.399994 Z" transform="matrix(1, 0, 0, 1, 3.923444986343384, -240.31100463867188)"/>
<g transform="matrix(1, 0, 0, 1, 3.923444986343384, -240.31100463867188)">
	<path d="M768.8,276.8c0,0,3.3,0.1,6.8,2.9c3.6,2.9,3.1,8.6,3.1,8.6h0.1c0,0-0.5-5.8,3.1-8.6c3.5-2.8,6.8-2.9,6.8-2.9v0&#10;&#9;&#9;c0,0-3.3-0.1-6.8-2.9c-3.6-2.9-3.1-8.6-3.1-8.6h-0.1c0,0,0.5,5.8-3.1,8.6C772.1,276.7,768.8,276.8,768.8,276.8L768.8,276.8z"/>
</g>
<path d="M 794.200012 275 H 904.800011 V 277.9 H 794.200012 V 275 Z" transform="matrix(1, 0, 0, 1, 3.923444986343384, -240.31100463867188)"/>
<path d="M 915.299988 276.399994 A 6.5 6.5 0 0 1 908.799988 282.899994 A 6.5 6.5 0 0 1 902.299988 276.399994 A 6.5 6.5 0 0 1 908.799988 269.899994 A 6.5 6.5 0 0 1 915.299988 276.399994 Z" transform="matrix(1, 0, 0, 1, 3.923444986343384, -240.31100463867188)"/>
<g transform="matrix(1, 0, 0, 1, 3.923444986343384, -240.31100463867188)">
	<path d="M919.8,285.4h1c0,0-7.6-4.5,43.2-6.7c49.3-2.2,96.6-2.2,96.6-2.2v0c0,0-47.3-0.1-96.6-2.2c-50.8-2.2-43.2-6.7-43.2-6.7h-1&#10;&#9;&#9;V285.4z"/>
</g>
<g transform="matrix(1, 0, 0, 1, 3.923444986343384, -240.31100463867188)">
	<path d="M501.9,285.8c-9-1.4-11.7-4.6-23.4-5.7c-7.9-0.7-10.5-0.3-18.5-0.1c-6.2,0.2-12.9,1.2-19,2c-17.6,2.5-23.7,2-28.2-1.6&#10;&#9;&#9;c-4.5-3.7-4.7-4.7-4.7-4.7h111.4v0C519.5,275.7,516.8,288,501.9,285.8z"/>
	<path d="M501.9,265.6c-9,1.4-11.7,4.6-23.4,5.7c-7.9,0.7-10.5,0.3-18.5,0.1c-6.2-0.2-12.9-1.2-19-2c-17.6-2.5-23.7-2-28.2,1.6&#10;&#9;&#9;c-4.5,3.7-4.7,4.7-4.7,4.7h111.4v0C519.5,275.7,516.8,263.3,501.9,265.6z"/>
</g>
<path d="M 401.799988 275.600006 A 6.5 6.5 0 0 1 395.299988 282.100006 A 6.5 6.5 0 0 1 388.799988 275.600006 A 6.5 6.5 0 0 1 395.299988 269.100006 A 6.5 6.5 0 0 1 401.799988 275.600006 Z" transform="matrix(1, 0, 0, 1, 3.923444986343384, -240.31100463867188)"/>
<path d="M 381.399994 276.399994 A 23.5 2.8 0 0 1 357.899994 279.199994 A 23.5 2.8 0 0 1 334.399994 276.399994 A 23.5 2.8 0 0 1 357.899994 273.599994 A 23.5 2.8 0 0 1 381.399994 276.399994 Z" transform="matrix(1, 0, 0, 1, 3.923444986343384, -240.31100463867188)"/>
<g transform="matrix(1, 0, 0, 1, 3.923444986343384, -240.31100463867188)">
	<path d="M330.1,276.8c0,0-3.3,0.1-6.8,2.9c-3.6,2.9-3.1,8.6-3.1,8.6h-0.1c0,0,0.5-5.8-3.1-8.6c-3.5-2.8-6.8-2.9-6.8-2.9v0&#10;&#9;&#9;c0,0,3.3-0.1,6.8-2.9c3.6-2.9,3.1-8.6,3.1-8.6h0.1c0,0-0.5,5.8,3.1,8.6C326.8,276.7,330.1,276.8,330.1,276.8L330.1,276.8z"/>
</g>
<path d="M 194.100006 275 H 304.700005 V 277.9 H 194.100006 V 275 Z" transform="matrix(1, 0, 0, 1, 3.923444986343384, -240.31100463867188)"/>
<path d="M 196.600006 276.399994 A 6.5 6.5 0 0 1 190.100006 282.899994 A 6.5 6.5 0 0 1 183.600006 276.399994 A 6.5 6.5 0 0 1 190.100006 269.899994 A 6.5 6.5 0 0 1 196.600006 276.399994 Z" transform="matrix(1, 0, 0, 1, 3.923444986343384, -240.31100463867188)"/>
<g transform="matrix(1, 0, 0, 1, 3.923444986343384, -240.31100463867188)">
	<path d="M179.1,285.4h-1c0,0,7.6-4.5-43.2-6.7c-49.3-2.2-96.6-2.2-96.6-2.2v0c0,0,47.3-0.1,96.6-2.2c50.8-2.2,43.2-6.7,43.2-6.7h1&#10;&#9;&#9;V285.4z"/>
</g>






























</svg>